<?xml version="1.0" encoding="utf-8"?>
<!-- Generator: Adobe Illustrator 23.0.1, SVG Export Plug-In . SVG Version: 6.00 Build 0)  -->
<svg version="1.1" id="Layer_1" xmlns="http://www.w3.org/2000/svg" xmlns:xlink="http://www.w3.org/1999/xlink" x="0px" y="0px"
	 viewBox="0 0 409.3 289.7" style="enable-background:new 0 0 409.3 289.7;" xml:space="preserve">
<style type="text/css">
	.st0{fill:#7F77FF;}
	.st1{fill:#F50057;}
	.st2{fill:#FFFFFF;}
	.st3{fill:#3F3D56;}
</style>
<title>Asset 1</title>
<g>
	<g id="a1bb6ffe-8d83-4899-8fa0-fcb3165ea164">
		<path class="st0" d="M250.2,54"/>
		<path class="st0" d="M166.7,92.7c0-0.9-0.2-1.3-0.4-1.3C166.4,92.2,166.5,92.9,166.7,92.7z"/>
		<path class="st0" d="M165,112.1c0,0.4-0.1,0.8-0.1,1.2C164.8,112.9,164.8,112.4,165,112.1z"/>
		<path class="st0" d="M279.8,25.3"/>
		<path class="st0" d="M317.7,26"/>
		<path class="st0" d="M316.8,26.9"/>
		<path class="st0" d="M355.8-0.3"/>
		<path class="st0" d="M248.4,28.5c-0.2,0-0.4,0.1-0.5,0.2C248.1,28.9,248.2,28.8,248.4,28.5z"/>
		<path class="st0" d="M161.9,135.7L161.9,135.7L161.9,135.7c0,0-0.2,0-0.3,0.1c-0.1,0-0.1,0-0.2,0L161.9,135.7L161.9,135.7z"/>
		<path class="st0" d="M51.5,286.7"/>
		<path class="st0" d="M82.1,153.7"/>
		<path class="st0" d="M139.5,138.5c-0.5,0-1.1-0.1-1.6-0.2L139.5,138.5z"/>
		<path class="st0" d="M61.5,158.6c-0.5-0.1-1.1-0.1-1.6,0c0.1,0.1,0.2,0.1,0.4,0.2C60.6,158.6,61.1,158.5,61.5,158.6z"/>
		<path class="st0" d="M61.5,158.6l0.7,0.1C62,158.7,61.7,158.6,61.5,158.6z"/>
		<path class="st0" d="M27.6,158.7c0.2,0.1,0.4,0.2,0.6,0.3l1.1-0.1L27.6,158.7z"/>
		<path class="st0" d="M56.4,159.7c0,0,0,0.1-0.1,0.1L56.4,159.7z"/>
		<path class="st0" d="M399.4,287.7"/>
		<path class="st0" d="M408.7,255.6L408.7,255.6C408.7,255.6,408.7,255.6,408.7,255.6z"/>
		<path class="st0" d="M136.6,139.4c0.3-0.1,0.7-0.2,1-0.3C138.3,139.3,137.3,139.3,136.6,139.4z"/>
		<path class="st0" d="M407.7,132.9"/>
		<path class="st1" d="M409.5,238.9c0.1-0.2,0.3-0.5,0.4-0.6l0.1,0.5c0.1-1,0-2.1-0.2-3.1c0.2-1.3,0.3-2.7,0.4-4.1
			c1-0.6,0.6-5.7,0.6-8.1c-1.4,0.2-1.2-3-2.3-0.1c0.1-0.2,0.1,0.7,0.2,2.2c0,0.3,0.1,0.7,0.2,1c0-0.1-0.1-0.1-0.1-0.2
			c0,1.6,0.1,3.7,0.1,6.1c-0.9-2.1-1.1-4.5-0.5-6.7c-0.8-1.1-1.5-2.3-2.2-3.5c1.9-3.4,3-9.9,4.2-10.8c-0.8-7.6-0.5-17.8-3.1-22.5
			c-0.3-2.2,0.7-2.5,1.2-3.3c0.3,1.2,0.2,2.7,0.6,3.4c-0.7-4.3-0.3-12.7-2.1-13.8c0.8-5.4,1.7,3.1,1.4-4.4l0.6,1
			c2.9-14.4-4.4-23.5-1.1-39.2c-0.1,0.6-0.3,0.9-0.5,1.1c1.6-18.5-1.5-38.1,1.1-56.4c0.5-5.2-0.6-5.8-1.5-8.9l1.5-1.1l-1.7-5.3
			c-1.3-7.7,3.6-13.3,1.3-23l-1,1.3c0.2-3.5-0.6-11.1,0.6-10.5c-0.6-0.7-0.8-1.6-0.5-2.5l0.8-0.1l-1.3-8.6c0.6-6.6,3.1,1,3.2-8.7
			c-0.3-3.6-2.3-10.3-2.8-8.9c0,1.5-0.5,3.7-1.3,3.8l-0.4-3.3l-0.4-0.1V1.1h-1.4c-0.6-0.3-1.3-0.3-1.9,0h-35.3l0.4-0.4l-1.2,0.4h-5
			c0.1-0.3,0.6-0.5,1.6-0.7c-3.6-1-3.2,0.7-6.3-0.4c-0.3-0.2-0.2-0.3,0.1-0.4l-3.5,0.6c0.7-0.4-0.6-1.5,1.6-1.2
			c-6.3-1.2-10.2,1.6-12.6,0l0.5-0.1c-6.6,0.5-3.8,1.1-4.7,2.1h-4.1l-0.8-0.7L331-0.5c-0.4-0.4-0.8-0.7-1.2-0.9
			c-0.3,0.5-0.6,1-0.9,1.5c-1,0-3.1-0.2-3-0.8c-1.8,0.5-1.4,0.7-1,0.8c0.4,0.2,1,0.3,0.3,0.8c-1.2-0.3-2.3-0.4-3.5-0.5
			c-0.1,2.2,0,4.9,0,6.9s-0.3,3.5-1.3,3.9c1.1,1.6,0.9-4.2,1.7,0.5c-2.6,1.3,0.4,5.5-0.8,9.4c-1.3-1.1-0.6-5-1.8-1
			c0.4,0.4,0.7,0.9,0.8,1.4c0.1,0.5,0.1,1.1,0,1.6c-0.2,1-0.4,1.9-0.8,2.8c-0.6-0.1-1.2-0.2-1.8-0.1c0.6,0.9-0.7,1.1-2.7,1.1h-4
			c-1.5,0-3,0.1-4.4,0.2c0.4-0.6-10.6-1-15.9-1.6l0.2-0.3c-1,1.8-6.4,1.5-10.4,1.9c0.2-1.1,0.9-1.5,3-2h-3.8c-0.9,0.6-2,0.9-4.4,1.1
			l0.9-1.4c-2.5,0-5,0.4-7.6,0.7c-1.3,0.1-2.7,0.2-4.2,0.3c-0.7,0-1.5,0-2.2-0.1c-0.4,0-0.8-0.1-1.1-0.1l-1.3-0.1
			c-0.1,0.3,0.3,0.7,0.7,1.1c0.4,0.4,0.7,0.8,1,1.3c0.2,0.2,0.2,0.6,0.1,0.9h-3.4c0-0.4,0.2-0.7,1-0.9c-1,0.3-2.1,0.4-3.1,0.2
			c0.8-0.4,1.7-0.8,2.7-1.1c-3.7-0.5-1.5,1-4.2,0.9c-0.5-1-2.5-0.7-2.7-1.5c0.7-0.1,2.9,0.4,3.8,0c-2-0.1-4.3-0.3-6.4-0.7
			c-0.1,1-0.4,1.9-0.8,2.7c0.6,0.1,1.3,1,1.4,3.5c0,3.3-0.3,3.8-0.6,4c-0.2,0.1-0.4,0.1-0.6,0.4c-0.1,0.2-0.2,0.4-0.3,0.6
			c-0.1,0.3-0.2,0.5-0.2,0.8c0.7,1.2,0,4.4,1.4,4.5c0,1.5-0.7,1.7-1.1,2.3c0.6,2.6,0.2,12.1,1.7,9.2l0.1-0.7c0,0.1,0,0.3,0.1,0.4
			c0.4,2.6,0.6,5.2,0.5,7.8c-0.1,2.2-0.3,4.2-0.5,6c-1.4-0.1-2.8-0.2-4-0.3c-0.6,0-1.2,0-1.9,0h-1.2l-1.2,0.1v-0.5
			c-5,0.5-11.1,0.3-14.6,1.4c-1.5,0-3.5-0.9-2.8-1.5c-3.8,0.4-4.2,0.9-9.7,0.1c3.8-0.9-1.3-0.8,3.9-0.6c-4.9-0.4-6-1.2-11.4,0.1
			c1.8-1.3-3.7-1.6-6-1.2l3.5,0.9c-2.4,0.1-4.9,0.1-7.3,0l1.3-1.6c-5-1-9.6-0.2-13.9,0.5c-2,0.4-4.1,0.6-6.2,0.6h-0.8l-1-0.1
			c-0.7,0-1.5-0.1-2.2-0.2c-1.7-0.2-3.3-0.5-4.9-0.9c-1.8,0.6,0.6,0.8,2.8,1s4.3,0.5,2.7,1.2c-3.3-0.2-6.5-0.6-9.7-1.3
			c-0.6,2.2-1.1,4.4-1.3,6.6c-0.1,1.3-0.2,2.5-0.2,3.5c0,0.5,0,1,0,1.5c0,0.2,0,0.5,0,0.6s0,0.3,0.1,0.4c0.2,0.9,0.4,1.7,0.8,2.5
			c0.9,2,1.3,4.3,1,6.5c0.6-0.9,2.2-1.7,2.7,3.4c-0.1,2.8-1,4.3-1.7,4.4c-0.4,0.1-0.8-0.3-1-1c-0.1-0.2-0.1-0.4-0.2-0.6
			c0-1.1,0.1-1.7,0.3-1.6c-0.2-1.5-0.5-3.5-1.1-1.6l0.6,0.6c-0.2,0.9-0.3,1.7-0.4,2.6c-0.3,2.7-0.4,5.8-1.1,4.7c0.5,3.1,0.8,2,1.1,0
			c-0.6,5.4,0.1,8.7-0.5,14.5c0.3-1,1-1.9,1-0.9c-0.7,9.1,1.1,4,1.4,10.2c-0.9,3.5-2.1-1.3-1.4,4.9c-0.6,3.8-1.5,0.8-2-0.7
			c0.5,2.6,0.5,5.2,0,7.8c0,0.2,0,0.3-0.1,0.5l-0.1,0.4v0.2c0,0,0,0,0,0.1l-0.1,0.1c-0.1,0.1-0.2,0.2-0.3,0.3
			c-0.1,0.1-0.3,0.2-0.4,0.3c-0.1-0.2-0.2-0.3-0.4-0.4c0.1,0.1,0.2,0.3,0.2,0.5c0.1,0.1,0.2,0.2,0.4,0.2c0.3,0.1,0.5,0.2,0.8,0.3
			c-0.2,0.3-0.2,0.6-0.6,0.2c0,0-0.1-0.1-0.1-0.1c0.3,0.5,0.7,1,1.2,1.4c0.5,0.5,1.1,1.1,0.5,1.6c-0.8-0.2-1.7-0.2-2.5-0.1h-0.6
			c-0.3,0-0.6,0-0.9,0c-0.5,0-1-0.3-1.2-0.7c0.9,0.1,1.6,0.1,2.1,0.1c0.2,0,0.3,0,0.4-0.1c0.1-0.1,0-0.3-0.1-0.6
			c-0.2-0.4-0.2-0.9,0.1-1.1h-0.1c-0.1,0-0.2,0-0.3-0.1l-1.2-0.1c-0.3-0.2,0.3-0.3,0.7-0.4c-0.5-0.1-1-0.2-1.4-0.3
			c-0.8-0.1-1.7-0.1-2.5,0c-1.8,0.4-1.4,2-6.5,2c0.9-0.9-1.7-1.7-2.8-1.5c2.9,0,1.4,1.5-1.3,2.2c-4.6-0.7-5,0.5-7.4,0.4l2.8,0.3
			c-0.9,0.9-3.2,0.8-6.5,1c-0.1-0.2,0.2-0.3,0.5-0.4c-3.3,0.5-7.3-1.8-11.7-0.9h-0.1c-2.3-0.6-0.2-1.7-2.3-2
			c-5.6,1.1-6-1.2-11.9-0.3c1.7,1.2,2,0.9-2.1,2l9.6-0.8l-6.2,1.7c2.9,0,6.1-0.7,7.9-0.5c-3,1-2.7,0.7-1.3,1.7
			c-4-1.8-7.9,1-12.5-0.2l0.1-2.9c-2.9-0.5-5.9-0.5-8.8,0l-1.1,0.1l-0.6,0.1h-0.2h-0.2h-0.5l-3.7,0.3c-2.5,0.2-5,0.3-7.9,0.3
			c0,1.3,0,2.7-0.1,4.1l0.5-3.8h0.4c0,0.1-0.1,0.1-0.2,0.2c0.4,1.8,0.6,3.7,0.4,5.6c0,0.2,0,0.4,0,0.5l0,0c0,0.9,0,1.9-0.1,2.9
			c0,0.6,0,1.1,0,1.7c0,0.3,0,0.5,0,0.8v0.4v0.3c-1-0.3-1.3,1.6-1.9,2.8c0.2,0,0.3,0.4,0.3,1c0.1,0.3,0.1,0.6,0.2,1
			c0.2,1,0.7,2,1.4,2.7c-0.2,0.1-0.3,0.3-0.5,0.4c-0.6-0.2-1.2-0.5-1.8-0.8c-0.6-0.1-1.2-0.1-1.8,0.2l-0.4,0.2
			c-0.1,0.1-0.2,0.1-0.3,0.1l-0.4,0.1c-0.5,0.2-1,0.3-1.5,0.5c-2.4,1-5,1.4-7.5,1.3c2.1-1.1-1.1-1.8,3.6-2.5c-2.3,0-4.4-0.2-4.5,0.5
			c-0.3-0.1-0.5-0.1-0.8-0.1c-1.2,0-3,0.5-4.8,0.7c-0.8,0.1-1.7,0.1-2.5,0c-0.2,0-0.4-0.1-0.5-0.2c-0.1,0-0.2,0.1-0.3,0.2
			c-1,0.9-2.3,1.3-3.6,1.2c-0.1-0.1-0.2-0.2-0.1-0.3l0,0c-0.5,0.4-3.8,0.6-1.7,1.6c-3.1-1.3-7.3-1.5-11.5-1.4
			c-5.6,0.1-11.3,0.5-14.8-1c-2.5,0.2-5.3,0.3-8.1,0.5l-4,0.2l-1.9,0.1h-2c0.2-0.2,0.2-0.3,0.3-0.3c0.2-0.1,0.5-0.1,0.8,0
			c-0.2,0-0.3-0.1-0.5-0.1l-0.6-0.1h-1.1c-0.6,0-1.2,0-1.8,0.1c-0.7,0.1-1.4,0.3-2.1,0.7c-1,0.8-2.3,1.3-3.6,1.4
			c0.1,1.1,0,2.1-0.2,3.2c-0.4,0.9-0.6,1.1-0.8,0.8c-0.2-0.6-0.3-1.2-0.3-1.8c-0.1-1.6-0.1-3.4-0.4-2c-1.6-0.7-1.5,3.1-1.2,7.2
			c0.1,2.4,0.3,3.5,0.3,5c0.1,1.4-0.1,2.8-0.6,4.1l-0.2-1.2c-1.1,3.8,1.2,9.2,1,15.3c0,0-0.3-0.3-0.5,0C2.4,196,3,204,3.4,209.9
			c-1.3-1.8-0.7-2.7-1.9-1.6c0.2,2.7,2-0.8,2.4,4.5c-0.7,1.7-1.3,5.5-2.6,6.1l-0.1-5c-1.8,2.6,0.1,6.5-0.2,9.1l-0.8-0.3
			c0.2,7.6,2.2,7.8,2,16l0.6-0.8c1.9,4.5-1.1,3.8,0.4,8.2l-2,1.4c0.5,3,1.9,10.4,2.3,15.7c-1.4-3.1-2.2-9.2-3-13.1
			c0,2.9,0.2,10,1.1,11.5c-0.2-1.2-0.7-2.7-0.4-3.9c1.5,3.6,2.3,8.3,2.2,14.2c-1.2-0.3-1.8,1.2-2,3.5c0,0.2,0,0.3,0,0.5
			c0,0.2,0,0.5,0,0.7c0,0.5,0,0.9-0.1,1.4c0,1-0.1,2-0.1,3.1c0,2.2-0.1,4.5-0.2,6.7c4.5,0.2,8.6,0.5,11.1,1.5l0.8-0.1l0.5-0.1l1-0.1
			c0.6-0.1,1.3-0.1,1.9-0.2c1.3-0.1,2.6-0.1,3.9-0.1c2.6,0,5.2,0.1,7.8,0.3c5.3,0.3,10.8,0.7,16.8,0.6c-4.2-2.9,3.5-0.1,2.8-3.1
			c2.8-0.2,3.8-0.1,4.1,0.1l-0.4-0.1l0.4,0.1l0,0l8.4,1.8c2,0.9-2.7,0.7-2.4,1.4c6.1,0.2,2.6,1.3,6.6,2.1c-0.8-1.1,2.1-1.6,5.6-1.1
			l-4.9-1.4c8.5-1.6,7.4,2.6,15.9,0.9l-2.7,1c4.4-0.6,16.2,0,20.6-2.4c0.8,0.4,1.8,1.2-0.1,1.4c10.5,0.4,23.4-2.6,31.6-1.1l-0.8,0.7
			c2-0.2,3.4-1.4,5.9-0.7c-0.1,0.3-0.8,0.8,0.1,0.8c1-0.3,5.2-1.3,7.8-0.9l-2.2,0.8c6.5,0.6,11.1-0.3,15.7-1.3
			c2.9-0.6,5.8-1.1,8.7-1.3c0,2.2,8.1,2.9,12.1,3.3l-0.2,0.3c4.8,0.1,9.6-0.2,14.4-0.7c3.7-0.4,7.2-0.9,10.9-1.4l0,0l0.7-0.1
			c0.9-0.1,1.8-0.2,2.6-0.3l0.9-0.1l1.9-0.2c3.1,0.9,6.4,1.3,9.6,1.4c7.7,0.4,17.4,0.1,24.7,1c-1.7-0.4,0.3-1.7,2.2-1.9
			c2.4,0.4,6.6-1.3,6.8,0.2c0,0.1,0,0.2,0,0.3h-0.9l0,0c2,2,7.3,1.4,11.4,1.5l0.7-2.6c10.9,3.8,28.5-1.4,34.4,2
			c2.6-0.7,5.9-0.7,8.5-1.3l-0.1,1.4c6.6,0.4,13.3,0.5,19.9,0.2l-1.8,1c5,0.1,6.4-4.1,11.1-4.1l1.4,2.1c8.9,0,17.8,1.8,26.5-0.1
			c-0.1,0.3-0.4,0.9-1.8,1c4,0.1,15.3,1.3,14.7-1.2c1,1.4,9.3-0.1,13.8-0.9l-0.7,1.4c2-0.9,3-1.5,4.3-1.9c0.7-0.2,1.4-0.4,2.2-0.5
			c0.5-0.1,0.9-0.1,1.5-0.2l2.6-0.2c1.7,0.2,2,0.9,0,0.8c1.5,0.2,3,0.1,4.4-0.2c1.2-0.4,2.5-0.6,3.8-0.6c0-1,0-2,0.2-3
			c0.3,1.2,0.6,2.4,0.9,3.7c0.1-2.1,0-4.3-0.3-6.4c-0.2-1.3-0.6-2.2-1.1-4c0-0.2-0.1-0.5-0.1-0.8c0-0.3,0-0.5-0.1-0.8
			c0-0.4,0-0.9,0-1.4c0-1,0.1-2,0.3-3c0.3-1.9,0.9-3.5,1.5-3.9c-0.8-0.6-1.8-3.2-1.4-5.9c0.5-0.4,0.8,0.6,0.9,1.1
			c0.9-7.7-1.6-11.5-0.2-16.8c0.4-0.1,0.7-0.5,0.8-0.9c0,5.6-0.1,10.2-0.2,10.6c1.3-0.1,1.5-4.9,3.2-1
			C411,250.6,408.9,243.8,409.5,238.9z M410.6,228.6c0.2,1.7-0.1,2.2-0.4,2.4c0-0.8-0.1-1.7-0.2-2.9c0-0.1-0.1-0.1-0.2-0.2
			C410.2,228.1,410.4,228.4,410.6,228.6L410.6,228.6z M354.2,0.9c0.2,0.1,0.3,0.1,0.5,0.2h-2.1C353.1,1,353.6,1,354.2,0.9L354.2,0.9
			z"/>
		<path class="st0" d="M162.5,136.1c-0.1,0.1-0.1,0.1-0.2,0.1C162.4,136.2,162.4,136.2,162.5,136.1z"/>
		<path class="st0" d="M136.3,139.5h0.2H136.3z"/>
		<path class="st0" d="M408.4,226"/>
		<path class="st0" d="M408.7,225"/>
		<path class="st0" d="M250.2,54c0-0.2,0.1-0.3,0.2-0.5c-0.1,0.1-0.1,0.1-0.2,0.2L250.2,54z"/>
		<path class="st0" d="M321.7-2.3"/>
		<path class="st0" d="M322.3-0.9"/>
		<path class="st0" d="M223.2,66.1"/>
		<path class="st0" d="M176.1,63.9"/>
		<path class="st0" d="M34.5,159.1"/>
		<path class="st0" d="M33.7,157.5"/>
		<path class="st0" d="M266.2,290.6"/>
		<path class="st2" d="M285.4,162.2c-0.2,12.1-1.9,24.1-5,35.7c-11.9,44.6-44.6,77-62.2,91.8c-3.2,0-6.5-0.5-9.6-1.4l-1.9,0.2
			l-0.9,0.1c-0.9,0.1-1.8,0.2-2.6,0.3l-0.7,0.1l0,0c-5.7-15-9.8-30.7-12.2-46.6l0,0c-3-20.4-3.5-44.4,2.9-68.3
			c2.7-10.1,6.5-20,11.3-29.3C227.4,99.9,267,73.2,267,73.2S286.5,113.8,285.4,162.2z"/>
		<path class="st2" d="M165,112.1c0,0.4-0.1,0.8-0.1,1.2C164.8,112.9,164.8,112.4,165,112.1z"/>
		<path class="st2" d="M136.6,139.4c0.3-0.1,0.7-0.2,1-0.3C138.3,139.3,137.3,139.3,136.6,139.4z"/>
		<path class="st2" d="M137.9,138.3l1.6,0.2C139,138.5,138.5,138.5,137.9,138.3z"/>
		<path class="st2" d="M161.6,135.7c-0.1,0-0.1,0-0.2,0l0.4-0.1l0,0l0,0l0,0C161.9,135.7,161.7,135.7,161.6,135.7z"/>
		<path class="st2" d="M162.5,136.1c-0.1,0.1-0.1,0.1-0.2,0.1C162.4,136.2,162.4,136.2,162.5,136.1z"/>
		<path class="st2" d="M218.8,242.4C218.8,242.4,218.8,242.4,218.8,242.4c-2.4,15.8-6.4,31.3-12,46.2l-0.9,0.1
			c-0.9,0.1-1.8,0.2-2.6,0.3l-0.7,0.1l0,0c-3.8,0.4-7.3,0.9-10.9,1.4c-17.4-14.6-50.8-47.3-62.9-92.4c-3.1-11.7-4.8-23.7-5-35.8
			c-0.2-7.9,0.2-15.8,1-23.6c4.4-0.9,8.3,1.5,11.7,0.9c-0.4,0.1-0.6,0.2-0.5,0.4c3.2-0.3,5.5-0.2,6.5-1l-2.8-0.3
			c2.4,0.1,2.8-1.1,7.4-0.4c2.7-0.7,4.2-2.1,1.3-2.2c1.2-0.2,3.8,0.6,2.8,1.5c5,0,4.7-1.6,6.5-2h2.4c0.4,0.1,0.9,0.1,1.4,0.3
			c-0.5,0.1-1,0.2-0.7,0.4l1.2,0.1c0.1,0,0.2,0,0.3,0.1h0.1c-0.3,0.2-0.2,0.7-0.1,1.1c0.1,0.2,0.2,0.5,0.1,0.6
			c-0.1,0.1-0.3,0.1-0.4,0.1c-0.5,0-1.1,0-2.1-0.1c0.3,0.4,0.7,0.7,1.2,0.7c0.3,0.1,0.6,0.1,0.9,0.1h0.6c0.8-0.1,1.7-0.1,2.5,0.1
			c0.6-0.5,0-1.1-0.5-1.6c-0.5-0.4-0.9-0.9-1.2-1.4c0,0,0.1,0.1,0.1,0.1c0.4,0.4,0.4,0.1,0.6-0.2c-0.3-0.1-0.5-0.2-0.8-0.3h0.7v-1.6
			c0-0.2,0-0.3,0.1-0.5c0.5-2.6,0.5-5.2,0-7.8c0.5,1.5,1.4,4.5,2,0.7c-0.7-6.2,0.5-1.4,1.4-4.9c-0.3-6.2-2.1-1.1-1.4-10.2
			c0-1-0.7-0.1-1,0.9c0.5-5.8-0.2-9.2,0.5-14.5c-0.3,2-0.6,3.1-1.1,0c0.7,1.1,0.9-2,1.1-4.7l0.7,0.7l1,1
			c12.3,12.2,26.7,29.2,37.4,50.3l0,0l0,0c4.8,9.3,8.6,19.1,11.3,29.3C222.3,198,221.8,221.9,218.8,242.4z"/>
		<path class="st3" d="M82.1,153.7"/>
		<path class="st3" d="M56.4,159.7c0,0,0,0.1-0.1,0.1L56.4,159.7z"/>
		<path class="st3" d="M203.2,288.9l-0.7,0.1l0,0c-3.8,0.4-7.3,0.9-10.9,1.4c-4.8,0.6-9.6,0.8-14.4,0.7l0.2-0.3
			c-4-0.3-12.1-1-12.1-3.3c-2.9,0.2-5.8,0.6-8.7,1.3c-21.3-7-46.1-18.9-66.4-38.8C61.6,221.8,48.7,184.2,43,160
			c4.2-0.1,8.4,0.1,11.5,1.4c-2.1-1,1.2-1.2,1.7-1.6c-0.1,0.1-0.1,0.2,0,0.3c0,0,0,0,0,0l0,0c1.3,0.1,2.6-0.3,3.6-1.2h8.1v-0.7
			c0.3,0,0.5,0,0.8,0.1c0-0.7,2.1-0.5,4.5-0.5c-4.7,0.8-1.5,1.5-3.6,2.5c2.6,0.1,5.1-0.3,7.5-1.3c0.5-0.2,1-0.4,1.5-0.5l0.4-0.1
			c0.1,0,0.2,0,0.3-0.1l0.4-0.2c0.6-0.3,1.2-0.3,1.8-0.2c0.6,0.3,1.2,0.6,1.8,0.8c0.2-0.1,0.4-0.2,0.5-0.4c-0.7-0.8-1.2-1.7-1.4-2.7
			c-0.1-0.4-0.1-0.7-0.2-1c-0.1-0.6-0.1-1-0.3-1c0.6-1.3,1-3.1,1.9-2.8v-0.3v-0.4c0-0.3,0-0.5,0-0.8c0-0.6,0-1.1,0-1.7
			c0-1,0-2,0.1-2.9c13.9,4.3,27.2,10.1,39.8,17.4c10.7,6.2,20.6,13.7,29.5,22.4c17.8,17.5,29.5,38.6,37.1,57.9l0,0
			C196.3,257.4,200.6,273,203.2,288.9z"/>
		<path class="st3" d="M251,289.2L251,289.2z"/>
		<path class="st3" d="M370.2,135.7c0,0-5.6,69.2-51.3,114.2c-20.5,20.1-45.5,32-67,39c-0.2-1.4-4.3,0.3-6.8-0.2
			c-2,0.2-3.9,1.5-2.2,1.9c-7.3-0.9-17-0.6-24.7-1c-3.2,0-6.5-0.5-9.6-1.4l-1.9,0.2l-0.9,0.1c2.7-15.8,7-31.4,12.9-46.3
			c7.7-19.3,19.4-40.4,37.1-57.8c8.9-8.7,18.8-16.2,29.5-22.4C326.3,138.2,370.2,135.7,370.2,135.7z"/>
	</g>
</g>
</svg>
