<svg xmlns="http://www.w3.org/2000/svg" viewBox="0 0 409.32 289.69"><defs><style>.cls-1{fill:#7f77ff;}.cls-2{fill:#f50057;}.cls-3{fill:#fff;}.cls-4{fill:#3f3d56;}</style></defs><title>Asset 1</title><g id="Layer_2" data-name="Layer 2"><g id="a1bb6ffe-8d83-4899-8fa0-fcb3165ea164"><path class="cls-1" d="M248.6,55.74a5.16,5.16,0,0,0-.19,1.23Z"/><path class="cls-1" d="M165.6,93.72c0-.9-.2-1.28-.35-1.32C165.36,93.23,165.46,93.92,165.6,93.72Z"/><path class="cls-1" d="M163.92,112.79c0,.39-.06.76-.11,1.2A2,2,0,0,1,163.92,112.79Z"/><path class="cls-1" d="M248.41,57l-.51,3.17C248.43,60.37,248.29,58.52,248.41,57Z"/><path class="cls-1" d="M277,27.44h1a5.54,5.54,0,0,0,.8-.65Z"/><path class="cls-1" d="M314.8,29.1a1.16,1.16,0,0,1,.87-.94,6.09,6.09,0,0,0-.86-1C314.34,27.13,314.83,28.5,314.8,29.1Z"/><path class="cls-1" d="M354.32,2.17l.34-.06Z"/><path class="cls-1" d="M353.53,2.3l.79-.13C354.06,2.21,353.76,2.25,353.53,2.3Z"/><path class="cls-1" d="M246.8,30.68a.44.44,0,0,0-.49.23C246.48,31,246.64,30.91,246.8,30.68Z"/><path class="cls-1" d="M402.48,3.71l.07.64a2.9,2.9,0,0,0,.77.14Z"/><path class="cls-1" d="M160.88,136s0,0,0,0,0,0,0,0-.15,0-.25.06a.51.51,0,0,0-.17,0l.41-.06Z"/><path class="cls-1" d="M50.72,287.46c-3.85-1.23,6.28-1.58.47-2.94C51.74,285.05,45.92,286.66,50.72,287.46Z"/><path class="cls-1" d="M81.55,153.7a2.29,2.29,0,0,1-.61.87C81.24,153.92,81.4,153.73,81.55,153.7Z"/><path class="cls-1" d="M138.64,138.82a10.47,10.47,0,0,1-1.58-.18Z"/><path class="cls-1" d="M61.12,158.56a4.07,4.07,0,0,0-1.63,0,1.46,1.46,0,0,0,.36.16A2.5,2.5,0,0,1,61.12,158.56Z"/><path class="cls-1" d="M61.12,158.56l.69.11A4.13,4.13,0,0,0,61.12,158.56Z"/><path class="cls-1" d="M27.41,158.67a4.74,4.74,0,0,0,.64.28l1.09-.07Z"/><path class="cls-1" d="M56,159.6a.12.12,0,0,1-.07.11Z"/><path class="cls-1" d="M396.86,285.46l-.68-.06Z"/><path class="cls-1" d="M406.14,253.89h0S406.13,253.93,406.14,253.89Z"/><path class="cls-1" d="M135.7,139.71a5.11,5.11,0,0,0,1-.31C137.45,139.59,136.47,139.58,135.7,139.71Z"/><path class="cls-1" d="M405.14,133.33c.05-.23.11-.49.17-.81C405.25,132.8,405.2,133.06,405.14,133.33Z"/><path class="cls-2" d="M406.91,237.54a1.84,1.84,0,0,1,.44-.63l.13.49a8.66,8.66,0,0,0-.19-3,29,29,0,0,0,.37-4c1-.55.56-5.59.62-8-1.37.2-1.16-2.92-2.26-.08.08-.16.12.67.18,2.16a6.09,6.09,0,0,0,.15,1,1.83,1.83,0,0,0-.13-.16c0,1.59.06,3.68.1,6a9.93,9.93,0,0,1-.53-6.62,40.07,40.07,0,0,1-2.21-3.4c1.92-3.32,3-9.74,4.13-10.63-.76-7.43-.51-17.5-3.09-22.17-.33-2.12.74-2.43,1.15-3.22.26,1.22.22,2.67.59,3.34-.67-4.23-.25-12.52-2.07-13.53.82-5.32,1.67,3,1.37-4.32l.55,1c2.84-14.14-4.34-23.08-1.07-38.53-.13.58-.25.92-.46,1.07,1.63-18.17-1.54-37.47,1.05-55.41.52-5.1-.62-5.66-1.5-8.77l1.47-1.1L404,63.79c-1.25-7.54,3.62-13.06,1.26-22.62l-1,1.24c.19-3.44-.59-10.87.55-10.3a2.44,2.44,0,0,1-.51-2.46l.78-.11-1.33-8.43c.55-6.53,3.07,1,3.22-8.52-.3-3.54-2.25-10.08-2.77-8.75,0,1.43-.48,3.65-1.26,3.75l-.4-3.23-.43-.13V3.71h-1.4a2.35,2.35,0,0,0-1.84,0H363.81l.38-.38L363,3.71h-5c.14-.29.61-.54,1.59-.66-3.6-1-3.19.73-6.27-.4-.34-.17-.2-.27.13-.35L350,2.91c.7-.43-.57-1.44,1.58-1.15-6.3-1.17-10.17,1.53-12.54,0l.52-.11c-6.54.5-3.77,1.08-4.71,2.08h-4.09L330,3l-1.11-.92a7.65,7.65,0,0,0-1.22-.92,11.24,11.24,0,0,0-.9,1.48c-1,0-3.11-.15-3-.76-1.79.52-1.41.67-1,.83s1,.3.31.79a18.79,18.79,0,0,0-3.49-.48c-.13,2.18,0,4.81,0,6.81s-.3,3.45-1.26,3.87c1.14,1.55.88-4.16,1.68.48-2.57,1.3.43,5.42-.75,9.28-1.32-1.11-.61-4.95-1.8-1a3.49,3.49,0,0,1,.81,1.39,4.31,4.31,0,0,1,0,1.6,13.93,13.93,0,0,1-.79,2.75,4.8,4.8,0,0,0-1.77-.11c.59.89-.72,1.08-2.69,1.12h-3.93c-1.46,0-3,.05-4.37.2.36-.6-10.57-1-15.8-1.61l.15-.31c-1,1.8-6.4,1.46-10.33,1.83.15-1.07.86-1.49,3-2H278c-.87.57-2,.88-4.41,1.08l.93-1.35c-2.46,0-4.93.44-7.58.72-1.33.13-2.69.23-4.13.25-.72,0-1.45,0-2.2-.05-.37,0-.76-.05-1.14-.09l-1.29-.14c-.14.31.34.69.65,1.08a8.68,8.68,0,0,1,1,1.24.84.84,0,0,1,.09.84H256.5c0-.37.23-.71,1-.88a7.59,7.59,0,0,1-3.11.2c.79-.37,1.7-.75,2.72-1.13-3.71-.5-1.52.95-4.13.84-.54-1-2.51-.69-2.72-1.45.73-.1,2.84.39,3.78,0-1.94-.1-4.24-.32-6.36-.64a8.17,8.17,0,0,1-.84,2.7c.55.05,1.3,1,1.42,3.49,0,3.22-.25,3.74-.62,3.94-.17.1-.37.11-.55.36a2.07,2.07,0,0,0-.27.56,3.71,3.71,0,0,0-.21.81c.66,1.2,0,4.33,1.42,4.41,0,1.44-.69,1.71-1.08,2.26.64,2.55.19,11.88,1.72,9l.1-.66c0,.13,0,.26.07.42a39.92,39.92,0,0,1,.47,7.64c-.06,2.14-.27,4.16-.46,5.94-1.44-.13-2.77-.23-4-.29-.63,0-1.24,0-1.84,0l-1.18,0-1.24.07,0-.48c-4.94.54-11,.32-14.52,1.37-1.46,0-3.44-.89-2.82-1.46-3.77.36-4.2.9-9.64.11,3.78-.85-1.32-.76,3.88-.62-4.9-.42-6-1.19-11.28.13,1.79-1.25-3.69-1.56-6-1.2l3.44.89a60.3,60.3,0,0,1-7.24,0l1.25-1.62c-5-1-9.54-.15-13.77.53a39.32,39.32,0,0,1-6.13.63H177l-1-.05c-.73,0-1.47-.1-2.23-.19a45.68,45.68,0,0,1-4.9-.86c-1.76.57.59.76,2.75,1s4.24.48,2.71,1.14a78.44,78.44,0,0,1-9.64-1.24,38.17,38.17,0,0,0-1.32,6.53c-.11,1.28-.15,2.44-.15,3.47,0,.51,0,1,0,1.45,0,.2,0,.51,0,.6s0,.25.05.37a11.15,11.15,0,0,0,.8,2.45,11.46,11.46,0,0,1,1,6.37c.58-.85,2.14-1.64,2.68,3.3-.12,2.74-1,4.23-1.72,4.37-.42.09-.81-.25-1-1a3,3,0,0,1-.15-.59c0-1.11.14-1.64.33-1.6-.21-1.49-.46-3.44-1.08-1.61l.57.59a19.83,19.83,0,0,0-.37,2.55c-.26,2.63-.42,5.69-1.11,4.61.48,3,.84,2,1.12,0-.61,5.28.07,8.57-.46,14.29.32-1,1-1.87,1-.9-.72,8.94,1.11,3.94,1.36,10-.89,3.44-2.11-1.23-1.38,4.86-.6,3.73-1.54.8-2-.68a21.49,21.49,0,0,1,0,7.67c0,.17,0,.33-.07.49l-.06.36,0,.21s0,0,0,.06l-.08.1a2.44,2.44,0,0,1-.29.27,2.7,2.7,0,0,0-.39.27,1.82,1.82,0,0,0-.36-.42.66.66,0,0,1,.16.5,2.71,2.71,0,0,0,.37.21,3.81,3.81,0,0,0,.79.31c-.19.28-.2.56-.58.21a.32.32,0,0,1-.12-.11,6.66,6.66,0,0,0,1.21,1.38c.51.52,1.12,1.08.54,1.6a6.17,6.17,0,0,0-2.46-.1h-.6A7,7,0,0,1,160,139a1.6,1.6,0,0,1-1.23-.7c.91.07,1.56.09,2.05.08a.6.6,0,0,0,.44-.11c.14-.12,0-.34-.05-.58-.16-.4-.22-.85.07-1.07l-.14,0a1.11,1.11,0,0,1-.25-.05l-1.16-.11c-.25-.18.25-.32.72-.41-.53-.11-1-.19-1.41-.25a7.26,7.26,0,0,0-2.46,0c-1.78.42-1.4,2-6.44,2,.9-.86-1.67-1.64-2.83-1.46,2.88,0,1.38,1.45-1.26,2.12-4.59-.68-5,.5-7.39.42l2.74.32c-.93.87-3.22.75-6.41,1-.09-.22.16-.34.51-.42-3.3.51-7.25-1.76-11.58-.92l-.13,0c-2.29-.59-.23-1.63-2.24-2-5.54,1.13-6-1.19-11.83-.26,1.68,1.17,2,.89-2.13,2l9.58-.82L111,139.45c2.9,0,6.11-.73,7.84-.53-2.94,1-2.64.66-1.25,1.63-4-1.75-7.84,1-12.41-.16l.14-2.89a27,27,0,0,0-8.78,0l-1.12.14-.55.07-.15,0-.23,0-.46,0-3.68.28c-2.48.17-5,.29-7.89.27,0,1.29,0,2.63-.12,4l.46-3.69.36,0a.5.5,0,0,1-.17.15,18.36,18.36,0,0,1,.41,5.53c0,.17,0,.35,0,.52h0c0,.92,0,1.88-.06,2.84,0,.57,0,1.12,0,1.67,0,.28,0,.54,0,.8l0,.39,0,.26c-1-.27-1.32,1.54-1.92,2.77.18,0,.26.35.32,1,.06.25.09.56.16.94a5.23,5.23,0,0,0,1.38,2.7,2.64,2.64,0,0,1-.5.38,18.37,18.37,0,0,1-1.76-.77,2.79,2.79,0,0,0-1.78.2l-.38.2a.91.91,0,0,1-.33.1l-.4.12c-.54.17-1,.34-1.54.52a17.11,17.11,0,0,1-7.48,1.28c2.09-1.05-1.06-1.73,3.58-2.48-2.32,0-4.39-.19-4.43.48a1.77,1.77,0,0,0-.79-.12c-1.17,0-3,.46-4.75.66a7.87,7.87,0,0,1-2.47,0,2,2,0,0,1-.53-.15,2.1,2.1,0,0,0-.3.15,4.69,4.69,0,0,1-3.59,1.2.25.25,0,0,1-.09-.34s0,0,0,0c-.52.4-3.82.62-1.72,1.61-3.08-1.3-7.22-1.44-11.43-1.38-5.53.07-11.18.48-14.7-1-2.52.16-5.3.33-8,.45l-4,.16-1.89.06-2,0c.2-.15.2-.27.31-.34a1.2,1.2,0,0,1,.75,0c-.18,0-.29-.05-.51-.06l-.64-.05-1.14,0a15.51,15.51,0,0,0-1.8.1,5.42,5.42,0,0,0-2.08.64,5.77,5.77,0,0,1-3.55,1.33,16.55,16.55,0,0,1-.15,3.15c-.39.85-.64,1.05-.81.77a6.1,6.1,0,0,1-.28-1.8c-.09-1.56-.06-3.32-.35-2-1.59-.7-1.48,3-1.2,7.12.13,2.38.31,3.42.34,4.91a10.82,10.82,0,0,1-.56,4l-.19-1.18c-1.08,3.7,1.21,9,1,15.08,0,0-.28-.29-.48,0C2.41,195.37,3,203.2,3.4,209c-1.25-1.81-.66-2.64-1.92-1.54.17,2.61,2-.76,2.38,4.44-.68,1.7-1.28,5.45-2.63,6L1.15,213c-1.74,2.51.07,6.35-.23,8.94l-.76-.33c.24,7.52,2.16,7.63,2,15.71l.58-.83c1.91,4.42-1.07,3.71.35,8.11l-1.94,1.34c.47,2.92,1.87,10.21,2.24,15.44-1.43-3-2.17-9.08-3-12.86,0,2.88.15,9.82,1.1,11.33-.19-1.17-.66-2.64-.36-3.79,1.51,3.54,2.26,8.21,2.23,14-1.23-.33-1.75,1.16-2,3.46,0,.15,0,.3,0,.45s0,.45,0,.67c0,.46,0,.93-.07,1.42,0,1-.05,2-.07,3.07,0,2.16-.1,4.43-.15,6.63,4.47.15,8.58.47,11,1.48l.8-.07.5-.06,1-.09c.63-.06,1.27-.11,1.9-.15,1.28-.09,2.55-.12,3.83-.13,2.55,0,5.14.1,7.77.25,5.26.29,10.73.73,16.67.61-4.21-2.9,3.46-.07,2.74-3.07,2.74-.18,3.8-.14,4.05.05l-.4-.09.42.11h0l8.38,1.78c2,.87-2.64.66-2.38,1.33,6.05.24,2.54,1.27,6.54,2.07-.82-1.07,2.11-1.54,5.56-1.13l-4.86-1.38c8.46-1.59,7.32,2.52,15.84.93l-2.7.95c4.38-.56,16.14,0,20.44-2.39.77.35,1.8,1.17-.13,1.38,10.46.36,23.28-2.55,31.41-1.07l-.8.73c1.95-.22,3.4-1.38,5.84-.65-.12.31-.79.74.12.78,1-.25,5.18-1.28,7.77-.85l-2.21.82c6.42.6,11-.34,15.58-1.26a61,61,0,0,1,8.63-1.25c0,2.16,8,2.86,12,3.2l-.15.31a107.85,107.85,0,0,0,14.26-.7c3.63-.4,7.15-.91,10.88-1.33h0l.71-.09c.86-.1,1.74-.18,2.63-.27l.85-.09,1.84-.15a37.7,37.7,0,0,0,9.55,1.35c7.66.38,17.28.07,24.56.94-1.68-.39.28-1.68,2.22-1.89,2.42.41,6.57-1.27,6.73.15a.69.69,0,0,1,0,.32l-.87,0h0c2,1.92,7.24,1.41,11.36,1.46l.68-2.58c10.81,3.76,28.32-1.38,34.22,2,2.62-.65,5.84-.64,8.43-1.29l-.14,1.38a183.47,183.47,0,0,0,19.76.2l-1.82,1c5,.09,6.36-4,11-4.08l1.39,2.06c8.8,0,17.69,1.79,26.38-.09-.14.31-.4.9-1.82,1,4,.05,15.23,1.31,14.61-1.17,1,1.4,9.21-.13,13.7-.9l-.73,1.36c2-.87,3-1.43,4.27-1.82a14.15,14.15,0,0,1,2.14-.5c.45-.07.88-.14,1.49-.2l2.54-.18c1.68.16,2,.92,0,.81a12.58,12.58,0,0,0,4.41-.2,13,13,0,0,1,3.76-.59,24.19,24.19,0,0,1,.16-2.95c.29,1.14.58,2.34.87,3.61a32.89,32.89,0,0,0-.27-6.27c-.23-1.25-.6-2.18-1.1-3.91,0-.24-.07-.49-.09-.76s0-.49-.06-.75c0-.43,0-.9,0-1.37a23.87,23.87,0,0,1,.28-2.91c.31-1.88.85-3.49,1.46-3.82-.75-.62-1.76-3.1-1.41-5.78.47-.36.77.6.9,1.1.93-7.6-1.58-11.31-.24-16.53a1.15,1.15,0,0,0,.81-.88c0,5.53-.1,10.07-.19,10.44,1.25-.07,1.47-4.86,3.19-1C408.37,249,406.32,242.29,406.91,237.54Zm1.1-10.13c.2,1.63-.08,2.16-.36,2.39,0-.76-.07-1.66-.17-2.84a1.29,1.29,0,0,0-.16-.18A1.74,1.74,0,0,1,408,227.41ZM352,3.49a2.86,2.86,0,0,1,.47.22H350.4c.5-.08,1-.15,1.61-.22Z"/><path class="cls-1" d="M161.5,136.47a.37.37,0,0,1-.24.12A.6.6,0,0,1,161.5,136.47Z"/><path class="cls-1" d="M135.48,139.75l.23,0Z"/><path class="cls-1" d="M406.21,224.51a3.87,3.87,0,0,1-.1-.67,7.63,7.63,0,0,0-.31,1l.43.58Z"/><path class="cls-1" d="M248.6,55.74a1.3,1.3,0,0,1,.2-.45c-.07.14-.11.14-.17.23Z"/><path class="cls-1" d="M317,2.06c.44,0,.94.65.85,5.33l.29-5.75,2.16.1c-1.74-.53-4.62-1.24-.64-1.37L316.48,0C316.15,2.76,316.54,2.07,317,2.06Z"/><path class="cls-1" d="M317.05,26c-.12-1.09-.31-1.12-.51-1s-.41.42-.56.29C316.47,26.59,316.59,27.22,317.05,26Z"/><path class="cls-1" d="M221.8,67.6l.34-1.25C219.53,66.53,222.11,66.83,221.8,67.6Z"/><polygon class="cls-1" points="176.63 65.34 176.85 65.32 177.25 65.29 178.85 65.15 180 64.97 177.82 65.2 176.73 65.31 174.95 65.43 176.29 65.36 176.63 65.34"/><path class="cls-1" d="M33.53,157.46l.79,1.54C36.08,158.72,36.45,157,33.53,157.46Z"/><path class="cls-1" d="M1.32,236.36a7.35,7.35,0,0,0-.51,5.77C.92,239.83,1.52,237.53,1.32,236.36Z"/><polygon class="cls-1" points="264.51 288.37 268.39 287.94 266.57 287.86 264.51 288.37"/><path class="cls-3" d="M283.54,162.07a148.57,148.57,0,0,1-4.94,35.15c-11.86,43.83-44.3,75.73-61.79,90.31a38.15,38.15,0,0,1-9.55-1.35l-1.84.15-.85.09c-.89.09-1.77.17-2.63.27l-.71.09h0a221.7,221.7,0,0,1-12.1-45.8h0c-3-20.07-3.52-43.63,2.85-67.17A146.94,146.94,0,0,1,203.22,145c22.74-44.13,62.06-70.42,62.06-70.42S284.71,114.5,283.54,162.07Z"/><path class="cls-3" d="M163.92,112.79c0,.39-.06.76-.11,1.2A2,2,0,0,1,163.92,112.79Z"/><path class="cls-3" d="M135.7,139.71a5.11,5.11,0,0,0,1-.31C137.45,139.59,136.47,139.58,135.7,139.71Z"/><path class="cls-3" d="M137.06,138.64l1.58.18A10.47,10.47,0,0,1,137.06,138.64Z"/><path class="cls-3" d="M160.6,136.07a.51.51,0,0,0-.17,0l.41-.06,0,0s0,0,0,0,0,0,0,0S160.7,136.05,160.6,136.07Z"/><path class="cls-3" d="M161.5,136.47a.37.37,0,0,1-.24.12A.6.6,0,0,1,161.5,136.47Z"/><path class="cls-3" d="M217.37,240.9s0,0,0,.06a222.38,222.38,0,0,1-11.94,45.37l-.85.09c-.89.09-1.77.17-2.63.27l-.71.09h0c-3.73.42-7.25.93-10.88,1.33-17.31-14.31-50.46-46.47-62.46-90.89a147.57,147.57,0,0,1-4.95-35.16,178.46,178.46,0,0,1,1-23.23c4.33-.84,8.28,1.43,11.58.92-.35.08-.6.2-.51.42,3.19-.28,5.48-.16,6.41-1l-2.74-.32c2.41.08,2.8-1.1,7.39-.42,2.64-.67,4.14-2.1,1.26-2.12,1.16-.18,3.73.6,2.83,1.46,5,0,4.66-1.53,6.44-2H159c.41.06.88.14,1.41.25-.47.09-1,.23-.72.41l1.16.11a1.11,1.11,0,0,0,.25.05l.14,0c-.29.22-.23.67-.07,1.07.09.24.19.46.05.58a.6.6,0,0,1-.44.11c-.49,0-1.14,0-2.05-.08a1.6,1.6,0,0,0,1.23.7,7,7,0,0,0,.92.11h.6a6.17,6.17,0,0,1,2.46.1c.58-.52,0-1.08-.54-1.6a6.66,6.66,0,0,1-1.21-1.38.32.32,0,0,0,.12.11c.38.35.39.07.58-.21a3.81,3.81,0,0,1-.79-.31h.72v-1.56c0-.16,0-.32.07-.49a21.49,21.49,0,0,0,0-7.67c.47,1.48,1.41,4.41,2,.68-.73-6.09.49-1.42,1.38-4.86-.25-6.06-2.08-1.06-1.36-10,0-1-.68-.07-1,.9.53-5.72-.15-9,.46-14.29-.28,2-.64,3-1.12,0,.69,1.08.85-2,1.11-4.61l.7.66,1,1c12.19,12,26.49,28.72,37.12,49.41,0,0,0,0,0,0h0a144.79,144.79,0,0,1,11.27,28.77C220.86,197.31,220.39,220.83,217.37,240.9Z"/><path class="cls-4" d="M81.55,153.7a2.29,2.29,0,0,1-.61.87C81.24,153.92,81.4,153.73,81.55,153.7Z"/><path class="cls-4" d="M56,159.6a.12.12,0,0,1-.07.11Z"/><path class="cls-4" d="M201.94,286.69l-.71.09h0c-3.73.42-7.25.93-10.88,1.33a107.85,107.85,0,0,1-14.26.7l.15-.31c-4-.34-12-1-12-3.2a61,61,0,0,0-8.63,1.25c-21.17-6.89-45.81-18.55-66-38.18-28.42-27.66-41.25-64.61-46.87-88.43,4.21-.06,8.35.08,11.43,1.38-2.1-1,1.2-1.21,1.72-1.61a.24.24,0,0,0,0,.35l0,0a4.69,4.69,0,0,0,3.59-1.2h8v-.66a1.77,1.77,0,0,1,.79.12c0-.67,2.11-.49,4.43-.48-4.64.75-1.49,1.44-3.58,2.48a17.11,17.11,0,0,0,7.48-1.28c.5-.18,1-.35,1.54-.52l.4-.12a.91.91,0,0,0,.33-.1l.38-.2a2.79,2.79,0,0,1,1.78-.2,18.37,18.37,0,0,0,1.76.77,2.64,2.64,0,0,0,.5-.38,5.23,5.23,0,0,1-1.38-2.7c-.07-.38-.1-.69-.16-.94-.06-.62-.14-1-.32-1,.6-1.23,1-3,1.92-2.77l0-.26,0-.39c0-.26,0-.52,0-.8,0-.55,0-1.1,0-1.67,0-1,0-1.92.06-2.84a192.94,192.94,0,0,1,39.54,17.09,148.86,148.86,0,0,1,29.28,22c17.65,17.18,29.28,37.94,36.9,56.91h0A221.34,221.34,0,0,1,201.94,286.69Z"/><path class="cls-4" d="M249.38,287h0Z"/><path class="cls-4" d="M367.88,136.08s-5.56,68-51,112.29c-20.36,19.81-45.26,31.5-66.55,38.36-.16-1.42-4.31.26-6.73-.15-1.94.21-3.9,1.5-2.22,1.89-7.28-.87-16.91-.56-24.56-.94a38.15,38.15,0,0,1-9.55-1.35l-1.84.15-.85.09a222.91,222.91,0,0,1,12.8-45.52c7.63-19,19.27-39.69,36.89-56.84a148.57,148.57,0,0,1,29.28-22C324.26,138.46,367.88,136.08,367.88,136.08Z"/></g></g></svg>