<?xml version="1.0" encoding="utf-8"?>
<!-- Generator: Adobe Illustrator 23.0.1, SVG Export Plug-In . SVG Version: 6.00 Build 0)  -->
<svg version="1.1" id="a1bb6ffe-8d83-4899-8fa0-fcb3165ea164"
	 xmlns="http://www.w3.org/2000/svg" xmlns:xlink="http://www.w3.org/1999/xlink" x="0px" y="0px" viewBox="0 0 884.6 628.6"
	 style="enable-background:new 0 0 884.6 628.6;" xml:space="preserve">
<style type="text/css">
	.st0{fill:#E6E6E6;}
	.st1{fill:#7F77FF;}
	.st2{fill:#F50057;}
	.st3{fill:#FFFFFF;}
	.st4{fill:#3F3D56;}
</style>
<title>work_in_progress</title>
<ellipse class="st0" cx="75.2" cy="619.6" rx="75.1" ry="9"/>
<path class="st1" d="M584.7,146.2c-0.1,0.4-0.2,0.8-0.2,1.2L584.7,146.2z"/>
<path class="st1" d="M501.7,184.2c0-0.9-0.2-1.3-0.3-1.3C501.5,183.7,501.6,184.4,501.7,184.2z"/>
<path class="st1" d="M500.1,203.2c0,0.4-0.1,0.8-0.1,1.2C499.9,204,499.9,203.6,500.1,203.2z"/>
<path class="st1" d="M584.6,147.4l-0.5,3.2C584.6,150.8,584.4,149,584.6,147.4z"/>
<path class="st1" d="M613.2,117.9l1,0c0.3-0.2,0.6-0.4,0.8-0.7L613.2,117.9z"/>
<path class="st1" d="M650.9,119.6c0.1-0.5,0.4-0.8,0.9-0.9c-0.3-0.4-0.5-0.7-0.9-1C650.5,117.6,651,119,650.9,119.6z"/>
<path class="st1" d="M690.5,92.6c0.1,0,0.2,0,0.3-0.1L690.5,92.6z"/>
<path class="st1" d="M689.7,92.8l0.8-0.1C690.2,92.7,689.9,92.7,689.7,92.8z"/>
<path class="st1" d="M582.9,121.1c-0.2,0-0.4,0.1-0.5,0.2C582.6,121.5,582.8,121.4,582.9,121.1z"/>
<path class="st1" d="M738.6,94.2l0.1,0.6c0.2,0.1,0.5,0.1,0.8,0.1L738.6,94.2z"/>
<path class="st1" d="M497,226.4C497,226.4,497,226.4,497,226.4C497,226.4,497,226.5,497,226.4c0,0.1-0.2,0.1-0.3,0.1
	c-0.1,0-0.1,0-0.2,0C496.7,226.5,496.9,226.4,497,226.4C497,226.4,497,226.4,497,226.4z"/>
<path class="st1" d="M386.9,377.9c-3.9-1.2,6.3-1.6,0.5-2.9C387.9,375.5,382.1,377.1,386.9,377.9z"/>
<path class="st1" d="M417.7,244.2c-0.1,0.3-0.3,0.6-0.6,0.9C417.4,244.4,417.5,244.2,417.7,244.2z"/>
<path class="st1" d="M474.8,229.3c-0.5,0-1.1-0.1-1.6-0.2L474.8,229.3z"/>
<path class="st1" d="M397.3,249c-0.5-0.1-1.1-0.1-1.6,0c0.1,0.1,0.2,0.1,0.4,0.2C396.4,249,396.8,249,397.3,249z"/>
<path class="st1" d="M397.3,249c0.2,0,0.4,0.1,0.7,0.1C397.7,249.1,397.5,249,397.3,249z"/>
<path class="st1" d="M363.6,249.1c0.2,0.1,0.4,0.2,0.6,0.3c0.3,0,0.7-0.1,1.1-0.1L363.6,249.1z"/>
<path class="st1" d="M392.1,250.1c0,0,0,0.1-0.1,0.1C392.1,250.1,392.1,250.1,392.1,250.1z"/>
<path class="st1" d="M733,375.9c-0.2,0-0.4,0-0.7-0.1C732.6,375.9,732.8,375.9,733,375.9z"/>
<path class="st1" d="M742.3,344.3C742.3,344.3,742.3,344.4,742.3,344.3C742.3,344.4,742.3,344.4,742.3,344.3z"/>
<path class="st1" d="M471.8,230.2c0.4-0.1,0.7-0.2,1-0.3C473.6,230,472.6,230,471.8,230.2z"/>
<path class="st1" d="M741.3,223.8c0.1-0.2,0.1-0.5,0.2-0.8C741.4,223.2,741.3,223.5,741.3,223.8z"/>
<path class="st2" d="M406.9,236.4c0.1-0.2,0.3-0.4,0.4-0.6l0.1,0.5c0.1-1,0-2-0.2-3c0.2-1.3,0.3-2.6,0.4-3.9c1-0.6,0.6-5.6,0.6-8
	c-1.4,0.2-1.2-2.9-2.3-0.1c0.1-0.2,0.1,0.7,0.2,2.2c0,0.3,0.1,0.7,0.1,1c0,0-0.1-0.1-0.1-0.2c0,1.6,0.1,3.7,0.1,6
	c-0.9-2.1-1.1-4.4-0.5-6.6c-0.9-1.2-1.8-2.6-2.2-3.4c1.9-3.3,3-9.7,4.1-10.6c-0.8-7.4-0.5-17.5-3.1-22.2c-0.3-2.1,0.7-2.4,1.2-3.2
	c0.3,1.2,0.2,2.7,0.6,3.3c-0.7-4.2-0.3-12.5-2.1-13.5c0.8-5.3,1.7,3,1.4-4.3l0.5,1c2.8-14.1-4.3-23.1-1.1-38.5
	c-0.1,0.6-0.2,0.9-0.5,1.1c1.6-18.2-1.5-37.5,1.1-55.4c0.5-5.1-0.6-5.7-1.5-8.8l1.5-1.1l-1.7-5.3c-1.3-7.5,3.6-13.1,1.3-22.6l-1,1.2
	c0.2-3.4-0.6-10.9,0.6-10.3c-0.6-0.7-0.8-1.6-0.5-2.5l0.8-0.1l-1.3-8.4c0.6-6.5,3.1,1,3.2-8.5c-0.3-3.5-2.3-10.1-2.8-8.8
	c0,1.4-0.5,3.6-1.3,3.8l-0.4-3.2c-0.1,0-0.3-0.1-0.4-0.1V2.5h-1.4c-0.6-0.2-1.3-0.2-1.8,0h-35.1l0.4-0.4l-1.2,0.4h-5
	c0.1-0.3,0.6-0.5,1.6-0.7c-3.6-1-3.2,0.7-6.3-0.4c-0.3-0.2-0.2-0.3,0.1-0.4l-3.5,0.6c0.7-0.4-0.6-1.4,1.6-1.1
	c-6.3-1.2-10.2,1.5-12.5,0l0.5-0.1c-6.5,0.5-3.8,1.1-4.7,2.1h-4.1L330,1.8l-1.1-0.9c-0.4-0.3-0.8-0.7-1.2-0.9
	c-0.3,0.5-0.6,1-0.9,1.5c-1,0-3.1-0.2-3-0.8c-1.8,0.5-1.4,0.7-1,0.8c0.5,0.2,1,0.3,0.3,0.8c-1.1-0.3-2.3-0.4-3.5-0.5
	c-0.1,2.2,0,4.8,0,6.8c0,2.1-0.3,3.4-1.3,3.9c1.1,1.6,0.9-4.2,1.7,0.5c-2.6,1.3,0.4,5.4-0.7,9.3c-1.3-1.1-0.6-5-1.8-1
	c0.4,0.4,0.6,0.9,0.8,1.4c0.1,0.5,0.1,1.1,0,1.6c-0.2,0.9-0.4,1.9-0.8,2.7c-0.6-0.1-1.2-0.2-1.8-0.1c0.6,0.9-0.7,1.1-2.7,1.1
	c-1.2,0-2.5,0-3.9,0c-1.5,0-3,0.1-4.4,0.2c0.4-0.6-10.6-1-15.8-1.6l0.1-0.3c-1,1.8-6.4,1.5-10.3,1.8c0.2-1.1,0.9-1.5,3-2l-3.7,0
	c-0.9,0.6-2,0.9-4.4,1.1l0.9-1.4c-2.5,0-4.9,0.4-7.6,0.7c-1.3,0.1-2.7,0.2-4.1,0.3c-0.7,0-1.4,0-2.2,0c-0.4,0-0.8,0-1.1-0.1
	c-0.4,0-0.9-0.1-1.3-0.1c-0.1,0.3,0.3,0.7,0.6,1.1c0.4,0.4,0.7,0.8,1,1.2c0.2,0.2,0.2,0.6,0.1,0.8h-3.4c0-0.4,0.2-0.7,1-0.9
	c-1,0.3-2.1,0.4-3.1,0.2c0.8-0.4,1.7-0.8,2.7-1.1c-3.7-0.5-1.5,0.9-4.1,0.8c-0.5-1-2.5-0.7-2.7-1.4c0.7-0.1,2.8,0.4,3.8,0
	c-1.9-0.1-4.2-0.3-6.4-0.6c-0.1,0.9-0.4,1.9-0.8,2.7c0.5,0,1.3,1,1.4,3.5c0,3.2-0.3,3.7-0.6,3.9c-0.2,0.1-0.4,0.1-0.6,0.4
	c-0.1,0.2-0.2,0.4-0.3,0.6c-0.1,0.3-0.2,0.5-0.2,0.8c0.7,1.2,0,4.3,1.4,4.4c0,1.4-0.7,1.7-1.1,2.3c0.6,2.5,0.2,11.9,1.7,9l0.1-0.7
	c0,0.1,0,0.3,0.1,0.4c0.4,2.5,0.6,5.1,0.5,7.6c-0.1,2.1-0.3,4.2-0.5,5.9c-1.4-0.1-2.8-0.2-4-0.3c-0.6,0-1.2,0-1.8,0l-1.2,0
	c-0.4,0-0.8,0-1.2,0.1l0-0.5c-4.9,0.5-11,0.3-14.5,1.4c-1.5,0-3.4-0.9-2.8-1.5c-3.8,0.4-4.2,0.9-9.6,0.1c3.8-0.8-1.3-0.8,3.9-0.6
	c-4.9-0.4-6-1.2-11.3,0.1c1.8-1.2-3.7-1.6-6-1.2l3.4,0.9c-2.4,0.1-4.8,0.1-7.2,0l1.3-1.6c-5-1-9.5-0.1-13.8,0.5
	c-2,0.4-4.1,0.6-6.1,0.6l-0.7,0l-0.9,0c-0.7,0-1.5-0.1-2.2-0.2c-1.6-0.2-3.3-0.5-4.9-0.9c-1.8,0.6,0.6,0.8,2.7,1
	c2.2,0.2,4.2,0.5,2.7,1.1c-3.2-0.2-6.5-0.6-9.6-1.2c-0.6,2.1-1.1,4.3-1.3,6.5c-0.1,1.3-0.2,2.4-0.2,3.5c0,0.5,0,1,0,1.4
	c0,0.2,0,0.5,0,0.6c0,0.1,0,0.2,0.1,0.4c0.2,0.8,0.4,1.7,0.8,2.5c0.9,2,1.3,4.2,1,6.4c0.6-0.9,2.1-1.6,2.7,3.3
	c-0.1,2.7-1,4.2-1.7,4.4c-0.4,0.1-0.8-0.3-1-1c-0.1-0.2-0.1-0.4-0.1-0.6c0-1.1,0.1-1.6,0.3-1.6c-0.2-1.5-0.5-3.4-1.1-1.6l0.6,0.6
	c-0.2,0.8-0.3,1.7-0.4,2.5c-0.3,2.6-0.4,5.7-1.1,4.6c0.5,3,0.8,2,1.1,0c-0.6,5.3,0.1,8.6-0.5,14.3c0.3-1,1-1.9,1-0.9
	c-0.7,8.9,1.1,3.9,1.4,10c-0.9,3.4-2.1-1.2-1.4,4.9c-0.6,3.7-1.5,0.8-2-0.7c0.5,2.5,0.5,5.1,0,7.7c0,0.2,0,0.3-0.1,0.5
	c0,0.1,0,0.2-0.1,0.4l0,0.2c0,0.1,0,0,0,0.1l-0.1,0.1c-0.1,0.1-0.2,0.2-0.3,0.3c-0.1,0.1-0.3,0.2-0.4,0.3c-0.1-0.2-0.2-0.3-0.4-0.4
	c0.1,0.1,0.2,0.3,0.2,0.5c0.1,0.1,0.2,0.2,0.4,0.2c0.3,0.1,0.5,0.2,0.8,0.3c-0.2,0.3-0.2,0.6-0.6,0.2c0,0-0.1-0.1-0.1-0.1
	c0.3,0.5,0.7,1,1.2,1.4c0.5,0.5,1.1,1.1,0.5,1.6c-0.8-0.2-1.6-0.2-2.5-0.1c-0.2,0-0.4,0-0.6,0c-0.3,0-0.6-0.1-0.9-0.1
	c-0.5,0-1-0.3-1.2-0.7c0.9,0.1,1.6,0.1,2.1,0.1c0.3,0,0.4,0,0.4-0.1c0.1-0.1,0-0.3,0-0.6c-0.2-0.4-0.2-0.9,0.1-1.1c0,0-0.1,0-0.1,0
	c-0.1,0-0.2,0-0.3,0c-0.4,0-0.8-0.1-1.2-0.1c-0.3-0.2,0.2-0.3,0.7-0.4c-0.5-0.1-1-0.2-1.4-0.2c-0.8-0.1-1.6-0.1-2.5,0
	c-1.8,0.4-1.4,2-6.4,1.9c0.9-0.9-1.7-1.6-2.8-1.5c2.9,0,1.4,1.4-1.3,2.1c-4.6-0.7-5,0.5-7.4,0.4l2.7,0.3c-0.9,0.9-3.2,0.8-6.4,1
	c-0.1-0.2,0.2-0.3,0.5-0.4c-3.3,0.5-7.2-1.8-11.6-0.9c0,0-0.1,0-0.1,0c-2.3-0.6-0.2-1.6-2.2-2c-5.5,1.1-6-1.2-11.8-0.3
	c1.7,1.2,2,0.9-2.1,2l9.6-0.8l-6.2,1.7c2.9,0,6.1-0.7,7.8-0.5c-2.9,0.9-2.6,0.7-1.2,1.6c-4-1.8-7.8,1-12.4-0.2l0.1-2.9
	c-2.9-0.5-5.9-0.4-8.8,0l-1.1,0.1l-0.6,0.1l-0.1,0l-0.2,0l-0.5,0c-1.2,0.1-2.4,0.2-3.7,0.3c-2.5,0.2-5,0.3-7.9,0.3
	c0,1.3,0,2.6-0.1,4l0.5-3.7l0.4,0c0,0.1-0.1,0.1-0.2,0.1c0.4,1.8,0.6,3.7,0.4,5.5c0,0.2,0,0.3,0,0.5v0c0,0.9,0,1.9-0.1,2.8
	c0,0.6,0,1.1,0,1.7c0,0.3,0,0.5,0,0.8l0,0.4l0,0.3c-1-0.3-1.3,1.5-1.9,2.8c0.2,0,0.3,0.4,0.3,1c0.1,0.3,0.1,0.6,0.2,0.9
	c0.2,1,0.7,2,1.4,2.7c-0.1,0.1-0.3,0.3-0.5,0.4c-0.6-0.2-1.2-0.5-1.8-0.8c-0.6-0.1-1.2-0.1-1.8,0.2c-0.1,0.1-0.3,0.1-0.4,0.2
	c-0.1,0.1-0.2,0.1-0.3,0.1c-0.1,0-0.3,0.1-0.4,0.1c-0.5,0.2-1,0.3-1.5,0.5c-2.4,1-4.9,1.4-7.5,1.3c2.1-1-1.1-1.7,3.6-2.5
	c-2.3,0-4.4-0.2-4.4,0.5c-0.3-0.1-0.5-0.1-0.8-0.1c-1.2,0-3,0.5-4.7,0.7c-0.8,0.1-1.7,0.1-2.5,0c-0.2,0-0.4-0.1-0.5-0.2
	c-0.1,0-0.2,0.1-0.3,0.2c-1,0.9-2.3,1.3-3.6,1.2c-0.1-0.1-0.2-0.2-0.1-0.3c0,0,0,0,0,0c-0.5,0.4-3.8,0.6-1.7,1.6
	c-3.1-1.3-7.2-1.4-11.4-1.4c-5.5,0.1-11.2,0.5-14.7-1c-2.5,0.2-5.3,0.3-8,0.5c-1.4,0-2.7,0.1-4,0.2c-0.6,0-1.3,0-1.9,0.1
	c-0.7,0-1.3,0-2,0c0.2-0.1,0.2-0.3,0.3-0.3c0.2-0.1,0.5-0.1,0.8,0c-0.2,0-0.3,0-0.5-0.1c-0.2,0-0.4,0-0.6,0c-0.4,0-0.8,0-1.1,0
	c-0.6,0-1.2,0-1.8,0.1c-0.7,0.1-1.4,0.3-2.1,0.6c-1,0.8-2.2,1.3-3.5,1.3c0,1.1,0,2.1-0.2,3.2c-0.4,0.9-0.6,1-0.8,0.8
	c-0.2-0.6-0.3-1.2-0.3-1.8c-0.1-1.6-0.1-3.3-0.4-2c-1.6-0.7-1.5,3-1.2,7.1c0.1,2.4,0.3,3.4,0.3,4.9c0.1,1.4-0.1,2.7-0.6,4L0.3,175
	c-1.1,3.7,1.2,9,1,15.1c0,0-0.3-0.3-0.5,0c1.6,4.1,2.2,12,2.6,17.8c-1.2-1.8-0.7-2.6-1.9-1.5c0.2,2.6,2-0.8,2.4,4.4
	c-0.7,1.7-1.3,5.4-2.6,5.9l-0.1-4.9c-1.7,2.5,0.1,6.3-0.2,8.9l-0.8-0.3c0.2,7.5,2.2,7.6,2,15.7l0.6-0.8c1.9,4.4-1.1,3.7,0.4,8.1
	l-1.9,1.3c0.5,2.9,1.9,10.2,2.2,15.4c-1.4-3-2.2-9.1-3-12.9c0,2.9,0.1,9.8,1.1,11.3c-0.2-1.2-0.7-2.6-0.4-3.8
	c1.5,3.5,2.3,8.2,2.2,14c-1.2-0.3-1.8,1.2-2,3.5c0,0.1,0,0.3,0,0.5c0,0.2,0,0.4,0,0.7c0,0.5,0,0.9-0.1,1.4c0,1,0,2-0.1,3.1
	c0,2.2-0.1,4.4-0.1,6.6c4.5,0.1,8.6,0.5,11,1.5l0.8-0.1l0.5-0.1l1-0.1c0.6-0.1,1.3-0.1,1.9-0.1c1.3-0.1,2.5-0.1,3.8-0.1
	c2.6,0,5.1,0.1,7.8,0.2c5.3,0.3,10.7,0.7,16.7,0.6c-4.2-2.9,3.5-0.1,2.7-3.1c2.7-0.2,3.8-0.1,4.1,0l-0.4-0.1c0.1,0,0.3,0.1,0.4,0.1
	v0l8.4,1.8c2,0.9-2.6,0.7-2.4,1.3c6.1,0.2,2.5,1.3,6.5,2.1c-0.8-1.1,2.1-1.5,5.6-1.1l-4.9-1.4c8.5-1.6,7.3,2.5,15.8,0.9l-2.7,0.9
	c4.4-0.6,16.1,0,20.4-2.4c0.8,0.3,1.8,1.2-0.1,1.4c10.5,0.4,23.3-2.6,31.4-1.1l-0.8,0.7c1.9-0.2,3.4-1.4,5.8-0.6
	c-0.1,0.3-0.8,0.7,0.1,0.8c1-0.2,5.2-1.3,7.8-0.9l-2.2,0.8c6.4,0.6,11-0.3,15.6-1.3c2.8-0.6,5.7-1,8.6-1.2c0,2.2,8,2.9,12,3.2
	l-0.1,0.3c4.8,0.1,9.5-0.1,14.3-0.7c3.6-0.4,7.2-0.9,10.9-1.3h0c0.2,0,0.5-0.1,0.7-0.1c0.9-0.1,1.7-0.2,2.6-0.3
	c0.3,0,0.6-0.1,0.8-0.1c0.6,0,1.2-0.1,1.8-0.1c3.1,0.9,6.3,1.3,9.5,1.4c7.7,0.4,17.3,0.1,24.6,0.9c-1.7-0.4,0.3-1.7,2.2-1.9
	c2.4,0.4,6.6-1.3,6.7,0.2c0,0.1,0,0.2,0,0.3l-0.9,0h0l0,0c1.9,1.9,7.2,1.4,11.4,1.5l0.7-2.6c10.8,3.8,28.3-1.4,34.2,2
	c2.6-0.6,5.8-0.6,8.4-1.3l-0.1,1.4c6.6,0.4,13.2,0.5,19.8,0.2l-1.8,1c5,0.1,6.4-4,11-4.1l1.4,2.1c8.8,0,17.7,1.8,26.4-0.1
	c-0.1,0.3-0.4,0.9-1.8,1c4,0,15.2,1.3,14.6-1.2c1,1.4,9.2-0.1,13.7-0.9l-0.7,1.4c2-0.9,3-1.4,4.3-1.8c0.7-0.2,1.4-0.4,2.1-0.5
	c0.5-0.1,0.9-0.1,1.5-0.2c0.7-0.1,1.6-0.1,2.5-0.2c1.7,0.2,2,0.9,0,0.8c1.5,0.2,3,0.1,4.4-0.2c1.2-0.4,2.5-0.6,3.8-0.6
	c0-1,0-2,0.2-2.9c0.3,1.1,0.6,2.3,0.9,3.6c0.1-2.1,0-4.2-0.3-6.3c-0.2-1.3-0.6-2.2-1.1-3.9c0-0.2-0.1-0.5-0.1-0.8
	c0-0.2,0-0.5-0.1-0.8c0-0.4,0-0.9,0-1.4c0-1,0.1-1.9,0.3-2.9c0.3-1.9,0.8-3.5,1.5-3.8c-0.8-0.6-1.8-3.1-1.4-5.8
	c0.5-0.4,0.8,0.6,0.9,1.1c0.9-7.6-1.6-11.3-0.2-16.5c0.4-0.1,0.7-0.5,0.8-0.9c0,5.5-0.1,10.1-0.2,10.4c1.2-0.1,1.5-4.9,3.2-1
	C408.4,247.8,406.4,241.1,406.9,236.4z M408.1,226.2c0.2,1.6-0.1,2.2-0.4,2.4c0-0.8-0.1-1.7-0.2-2.8c0,0-0.1-0.1-0.2-0.2
	C407.6,225.7,407.9,226,408.1,226.2z M352,2.3c0.2,0.1,0.3,0.1,0.5,0.2h-2.1C350.9,2.4,351.5,2.4,352,2.3L352,2.3z"/>
<path class="st1" d="M497.7,226.9c-0.1,0.1-0.2,0.1-0.2,0.1C497.5,227,497.6,226.9,497.7,226.9z"/>
<path class="st1" d="M471.6,230.2c0.1,0,0.2,0,0.2,0C471.8,230.2,471.7,230.2,471.6,230.2z"/>
<path class="st1" d="M742.4,315c0-0.2-0.1-0.4-0.1-0.7c-0.1,0.3-0.2,0.6-0.3,1l0.4,0.6L742.4,315z"/>
<path class="st1" d="M584.7,146.2c0-0.2,0.1-0.3,0.2-0.5c-0.1,0.1-0.1,0.1-0.2,0.2L584.7,146.2z"/>
<path class="st1" d="M653.1,92.5c0.4,0,0.9,0.6,0.8,5.3l0.3-5.8l2.2,0.1c-1.7-0.5-4.6-1.2-0.6-1.4c-1.4-0.2-2.4-0.3-3.2-0.4
	C652.3,93.2,652.7,92.5,653.1,92.5z"/>
<path class="st1" d="M653.2,116.5c-0.1-1.1-0.3-1.1-0.5-1c-0.2,0.1-0.4,0.4-0.6,0.3C652.6,117,652.7,117.7,653.2,116.5z"/>
<path class="st1" d="M557.9,158.1l0.3-1.3C555.7,157,558.3,157.3,557.9,158.1z"/>
<polygon class="st1" points="512.8,155.8 513,155.8 513.4,155.7 515,155.6 516.1,155.4 514,155.7 512.9,155.8 511.1,155.9 
	512.4,155.8 "/>
<path class="st1" d="M369.7,247.9l0.8,1.5C372.2,249.2,372.6,247.4,369.7,247.9z"/>
<path class="st1" d="M337.5,326.8c-1,1.8-1.1,3.9-0.5,5.8C337.1,330.3,337.7,328,337.5,326.8z"/>
<polygon class="st1" points="600.7,378.8 604.5,378.4 602.7,378.3 "/>
<path class="st3" d="M283.6,160.9c-0.2,11.9-1.9,23.7-4.9,35.1c-11.9,43.8-44.3,75.7-61.8,90.3c-3.2,0-6.4-0.5-9.5-1.4
	c-0.6,0-1.2,0.1-1.8,0.1c-0.3,0-0.6,0.1-0.8,0.1c-0.9,0.1-1.8,0.2-2.6,0.3c-0.2,0-0.5,0.1-0.7,0.1h0c-5.7-14.8-9.7-30.1-12.1-45.8
	l0,0v0c-3-20.1-3.5-43.6,2.9-67.2c2.7-10,6.5-19.6,11.3-28.8c22.7-44.1,62.1-70.4,62.1-70.4S284.8,113.3,283.6,160.9z"/>
<path class="st3" d="M500.1,203.2c0,0.4-0.1,0.8-0.1,1.2C499.9,204,499.9,203.6,500.1,203.2z"/>
<path class="st3" d="M471.8,230.2c0.4-0.1,0.7-0.2,1-0.3C473.6,230,472.6,230,471.8,230.2z"/>
<path class="st3" d="M473.2,229.1l1.6,0.2C474.3,229.3,473.7,229.2,473.2,229.1z"/>
<path class="st3" d="M496.7,226.5c-0.1,0-0.1,0-0.2,0c0.1,0,0.3,0,0.4-0.1c0,0,0,0,0,0s0,0,0,0c0,0,0,0,0,0
	C497,226.5,496.8,226.5,496.7,226.5z"/>
<path class="st3" d="M497.7,226.9c-0.1,0.1-0.2,0.1-0.2,0.1C497.5,227,497.6,226.9,497.7,226.9z"/>
<path class="st3" d="M217.4,239.7C217.4,239.7,217.4,239.8,217.4,239.7c-2.4,15.6-6.4,30.8-12,45.4c-0.3,0-0.6,0.1-0.8,0.1
	c-0.9,0.1-1.8,0.2-2.6,0.3c-0.2,0-0.5,0.1-0.7,0.1h0c-3.7,0.4-7.2,0.9-10.9,1.3c-17.3-14.3-50.5-46.5-62.5-90.9
	c-3.1-11.5-4.7-23.3-5-35.2c-0.2-7.8,0.1-15.5,1-23.2c4.3-0.8,8.3,1.4,11.6,0.9c-0.4,0.1-0.6,0.2-0.5,0.4c3.2-0.3,5.5-0.2,6.4-1
	l-2.7-0.3c2.4,0.1,2.8-1.1,7.4-0.4c2.6-0.7,4.1-2.1,1.3-2.1c1.2-0.2,3.7,0.6,2.8,1.5c5,0,4.7-1.5,6.4-1.9h2.5
	c0.4,0.1,0.9,0.1,1.4,0.2c-0.5,0.1-1,0.2-0.7,0.4c0.4,0,0.8,0.1,1.2,0.1c0.1,0,0.2,0,0.3,0c0,0,0.1,0,0.1,0
	c-0.3,0.2-0.2,0.7-0.1,1.1c0.1,0.2,0.2,0.5,0,0.6c-0.1,0.1-0.2,0.1-0.4,0.1c-0.5,0-1.1,0-2.1-0.1c0.3,0.4,0.7,0.7,1.2,0.7
	c0.3,0.1,0.6,0.1,0.9,0.1c0.2,0,0.4,0,0.6,0c0.8-0.1,1.7-0.1,2.5,0.1c0.6-0.5,0-1.1-0.5-1.6c-0.5-0.4-0.9-0.9-1.2-1.4
	c0,0,0.1,0.1,0.1,0.1c0.4,0.4,0.4,0.1,0.6-0.2c-0.3-0.1-0.5-0.2-0.8-0.3h0.7V133c0-0.2,0-0.3,0.1-0.5c0.4-2.5,0.4-5.1,0-7.7
	c0.5,1.5,1.4,4.4,2,0.7c-0.7-6.1,0.5-1.4,1.4-4.9c-0.3-6.1-2.1-1.1-1.4-10c0-1-0.7-0.1-1,0.9c0.5-5.7-0.2-9,0.5-14.3
	c-0.3,2-0.6,3-1.1,0c0.7,1.1,0.9-2,1.1-4.6c0.2,0.2,0.5,0.4,0.7,0.7c0.3,0.3,0.7,0.7,1,1c12.2,12,26.5,28.7,37.1,49.4c0,0,0,0,0,0
	c0,0,0,0,0,0c4.8,9.2,8.5,18.8,11.3,28.8C220.9,196.1,220.4,219.6,217.4,239.7z"/>
<path class="st4" d="M417.7,244.2c-0.1,0.3-0.3,0.6-0.6,0.9C417.4,244.4,417.5,244.2,417.7,244.2z"/>
<path class="st4" d="M392.1,250.1c0,0,0,0.1-0.1,0.1C392.1,250.1,392.1,250.1,392.1,250.1z"/>
<path class="st4" d="M202,285.5c-0.2,0-0.5,0.1-0.7,0.1h0c-3.7,0.4-7.2,0.9-10.9,1.3c-4.7,0.6-9.5,0.8-14.3,0.7l0.1-0.3
	c-4-0.3-12-1-12-3.2c-2.9,0.2-5.8,0.6-8.6,1.2c-21.2-6.9-45.8-18.6-66-38.2c-28.4-27.7-41.2-64.6-46.9-88.4
	c4.2-0.1,8.4,0.1,11.4,1.4c-2.1-1,1.2-1.2,1.7-1.6c-0.1,0.1-0.1,0.3,0,0.4c0,0,0,0,0,0c1.3,0.1,2.6-0.3,3.6-1.2h8.1V157
	c0.3,0,0.5,0,0.8,0.1c0-0.7,2.1-0.5,4.4-0.5c-4.6,0.8-1.5,1.4-3.6,2.5c2.6,0.1,5.1-0.3,7.5-1.3c0.5-0.2,1-0.4,1.5-0.5
	c0.1,0,0.3-0.1,0.4-0.1c0.1,0,0.2-0.1,0.3-0.1c0.1-0.1,0.3-0.1,0.4-0.2c0.6-0.3,1.2-0.3,1.8-0.2c0.6,0.3,1.2,0.5,1.8,0.8
	c0.2-0.1,0.3-0.2,0.5-0.4c-0.7-0.7-1.2-1.7-1.4-2.7c-0.1-0.4-0.1-0.7-0.2-0.9c-0.1-0.6-0.1-1-0.3-1c0.6-1.2,0.9-3,1.9-2.8l0-0.3
	l0-0.4c0-0.3,0-0.5,0-0.8c0-0.5,0-1.1,0-1.7c0-1,0-1.9,0.1-2.8c13.8,4.2,27,9.9,39.5,17.1c10.6,6.1,20.5,13.5,29.3,22
	c17.7,17.2,29.3,37.9,36.9,56.9v0l0,0C195.1,254.5,199.4,269.9,202,285.5z"/>
<path class="st4" d="M585.5,377.5L585.5,377.5C585.6,377.5,585.6,377.5,585.5,377.5L585.5,377.5z"/>
<path class="st4" d="M367.9,134.9c0,0-5.6,68-51,112.3c-20.4,19.8-45.3,31.5-66.5,38.4c-0.2-1.4-4.3,0.3-6.7-0.2
	c-1.9,0.2-3.9,1.5-2.2,1.9c-7.3-0.9-16.9-0.6-24.6-0.9c-3.2,0-6.4-0.5-9.5-1.4c-0.6,0-1.2,0.1-1.8,0.1c-0.3,0-0.6,0.1-0.8,0.1
	c2.6-15.6,6.9-30.8,12.8-45.5c7.6-19,19.3-39.7,36.9-56.8c8.8-8.5,18.7-15.9,29.3-22C324.3,137.3,367.9,134.9,367.9,134.9z"/>
<path class="st1" d="M246,327.2c-0.1,0,0.1,0.3,0.2,0.5L246,327.2z"/>
<path class="st1" d="M251.8,334.6l0.1,0.1c0.1,0,0.1,0,0.2,0L251.8,334.6z"/>
<path class="st1" d="M255.4,340c0.1,0,0.3,0.1,0.4,0.2c0.1,0,0.1-0.1,0.1-0.2C255.8,339.8,255.5,340,255.4,340z"/>
<path class="st1" d="M266.7,355.7L266.7,355.7c0,0.1,0,0.2,0.1,0.2L266.7,355.7z"/>
<path class="st1" d="M246.3,327.8C246.4,327.9,246.4,327.9,246.3,327.8C246.4,327.9,246.4,327.9,246.3,327.8L246.3,327.8z"/>
<path class="st1" d="M259.1,344.4c-0.5-1.3,0,0.4-0.8-0.8l0.6,0.9C258.8,344.3,258.8,344,259.1,344.4z"/>
<path class="st1" d="M256.6,340.8c-0.3-0.2-0.4-0.3-0.2,0.1C256.8,341.3,256.5,340.8,256.6,340.8z"/>
</svg>
